G75*
%MOIN*%
%OFA0B0*%
%FSLAX24Y24*%
%IPPOS*%
%LPD*%
%AMOC8*
5,1,8,0,0,1.08239X$1,22.5*
%
%ADD10C,0.0080*%
%ADD11C,0.0000*%
%ADD12C,0.1340*%
%ADD13C,0.0100*%
%ADD14C,0.0820*%
%ADD15R,0.0820X0.0820*%
%ADD16R,0.0552X0.0552*%
%ADD17R,0.0592X0.0671*%
%ADD18R,0.0946X0.0316*%
%ADD19R,0.0790X0.0710*%
%ADD20R,0.0789X0.0710*%
%ADD21C,0.0640*%
%ADD22R,0.0671X0.0592*%
%ADD23R,0.0880X0.0880*%
%ADD24C,0.0880*%
%ADD25R,0.0710X0.0789*%
D10*
X000267Y000150D02*
X000267Y031650D01*
X037267Y031650D01*
X038267Y030650D01*
X038267Y022650D01*
X039267Y021650D01*
X039267Y008150D01*
X038267Y007150D01*
X038267Y000150D01*
X000267Y000150D01*
D11*
X004637Y007650D02*
X004639Y007700D01*
X004645Y007750D01*
X004655Y007799D01*
X004669Y007847D01*
X004686Y007894D01*
X004707Y007939D01*
X004732Y007983D01*
X004760Y008024D01*
X004792Y008063D01*
X004826Y008100D01*
X004863Y008134D01*
X004903Y008164D01*
X004945Y008191D01*
X004989Y008215D01*
X005035Y008236D01*
X005082Y008252D01*
X005130Y008265D01*
X005180Y008274D01*
X005229Y008279D01*
X005280Y008280D01*
X005330Y008277D01*
X005379Y008270D01*
X005428Y008259D01*
X005476Y008244D01*
X005522Y008226D01*
X005567Y008204D01*
X005610Y008178D01*
X005651Y008149D01*
X005690Y008117D01*
X005726Y008082D01*
X005758Y008044D01*
X005788Y008004D01*
X005815Y007961D01*
X005838Y007917D01*
X005857Y007871D01*
X005873Y007823D01*
X005885Y007774D01*
X005893Y007725D01*
X005897Y007675D01*
X005897Y007625D01*
X005893Y007575D01*
X005885Y007526D01*
X005873Y007477D01*
X005857Y007429D01*
X005838Y007383D01*
X005815Y007339D01*
X005788Y007296D01*
X005758Y007256D01*
X005726Y007218D01*
X005690Y007183D01*
X005651Y007151D01*
X005610Y007122D01*
X005567Y007096D01*
X005522Y007074D01*
X005476Y007056D01*
X005428Y007041D01*
X005379Y007030D01*
X005330Y007023D01*
X005280Y007020D01*
X005229Y007021D01*
X005180Y007026D01*
X005130Y007035D01*
X005082Y007048D01*
X005035Y007064D01*
X004989Y007085D01*
X004945Y007109D01*
X004903Y007136D01*
X004863Y007166D01*
X004826Y007200D01*
X004792Y007237D01*
X004760Y007276D01*
X004732Y007317D01*
X004707Y007361D01*
X004686Y007406D01*
X004669Y007453D01*
X004655Y007501D01*
X004645Y007550D01*
X004639Y007600D01*
X004637Y007650D01*
X004637Y026650D02*
X004639Y026700D01*
X004645Y026750D01*
X004655Y026799D01*
X004669Y026847D01*
X004686Y026894D01*
X004707Y026939D01*
X004732Y026983D01*
X004760Y027024D01*
X004792Y027063D01*
X004826Y027100D01*
X004863Y027134D01*
X004903Y027164D01*
X004945Y027191D01*
X004989Y027215D01*
X005035Y027236D01*
X005082Y027252D01*
X005130Y027265D01*
X005180Y027274D01*
X005229Y027279D01*
X005280Y027280D01*
X005330Y027277D01*
X005379Y027270D01*
X005428Y027259D01*
X005476Y027244D01*
X005522Y027226D01*
X005567Y027204D01*
X005610Y027178D01*
X005651Y027149D01*
X005690Y027117D01*
X005726Y027082D01*
X005758Y027044D01*
X005788Y027004D01*
X005815Y026961D01*
X005838Y026917D01*
X005857Y026871D01*
X005873Y026823D01*
X005885Y026774D01*
X005893Y026725D01*
X005897Y026675D01*
X005897Y026625D01*
X005893Y026575D01*
X005885Y026526D01*
X005873Y026477D01*
X005857Y026429D01*
X005838Y026383D01*
X005815Y026339D01*
X005788Y026296D01*
X005758Y026256D01*
X005726Y026218D01*
X005690Y026183D01*
X005651Y026151D01*
X005610Y026122D01*
X005567Y026096D01*
X005522Y026074D01*
X005476Y026056D01*
X005428Y026041D01*
X005379Y026030D01*
X005330Y026023D01*
X005280Y026020D01*
X005229Y026021D01*
X005180Y026026D01*
X005130Y026035D01*
X005082Y026048D01*
X005035Y026064D01*
X004989Y026085D01*
X004945Y026109D01*
X004903Y026136D01*
X004863Y026166D01*
X004826Y026200D01*
X004792Y026237D01*
X004760Y026276D01*
X004732Y026317D01*
X004707Y026361D01*
X004686Y026406D01*
X004669Y026453D01*
X004655Y026501D01*
X004645Y026550D01*
X004639Y026600D01*
X004637Y026650D01*
X034137Y026650D02*
X034139Y026700D01*
X034145Y026750D01*
X034155Y026799D01*
X034169Y026847D01*
X034186Y026894D01*
X034207Y026939D01*
X034232Y026983D01*
X034260Y027024D01*
X034292Y027063D01*
X034326Y027100D01*
X034363Y027134D01*
X034403Y027164D01*
X034445Y027191D01*
X034489Y027215D01*
X034535Y027236D01*
X034582Y027252D01*
X034630Y027265D01*
X034680Y027274D01*
X034729Y027279D01*
X034780Y027280D01*
X034830Y027277D01*
X034879Y027270D01*
X034928Y027259D01*
X034976Y027244D01*
X035022Y027226D01*
X035067Y027204D01*
X035110Y027178D01*
X035151Y027149D01*
X035190Y027117D01*
X035226Y027082D01*
X035258Y027044D01*
X035288Y027004D01*
X035315Y026961D01*
X035338Y026917D01*
X035357Y026871D01*
X035373Y026823D01*
X035385Y026774D01*
X035393Y026725D01*
X035397Y026675D01*
X035397Y026625D01*
X035393Y026575D01*
X035385Y026526D01*
X035373Y026477D01*
X035357Y026429D01*
X035338Y026383D01*
X035315Y026339D01*
X035288Y026296D01*
X035258Y026256D01*
X035226Y026218D01*
X035190Y026183D01*
X035151Y026151D01*
X035110Y026122D01*
X035067Y026096D01*
X035022Y026074D01*
X034976Y026056D01*
X034928Y026041D01*
X034879Y026030D01*
X034830Y026023D01*
X034780Y026020D01*
X034729Y026021D01*
X034680Y026026D01*
X034630Y026035D01*
X034582Y026048D01*
X034535Y026064D01*
X034489Y026085D01*
X034445Y026109D01*
X034403Y026136D01*
X034363Y026166D01*
X034326Y026200D01*
X034292Y026237D01*
X034260Y026276D01*
X034232Y026317D01*
X034207Y026361D01*
X034186Y026406D01*
X034169Y026453D01*
X034155Y026501D01*
X034145Y026550D01*
X034139Y026600D01*
X034137Y026650D01*
X036637Y007650D02*
X036639Y007700D01*
X036645Y007750D01*
X036655Y007799D01*
X036669Y007847D01*
X036686Y007894D01*
X036707Y007939D01*
X036732Y007983D01*
X036760Y008024D01*
X036792Y008063D01*
X036826Y008100D01*
X036863Y008134D01*
X036903Y008164D01*
X036945Y008191D01*
X036989Y008215D01*
X037035Y008236D01*
X037082Y008252D01*
X037130Y008265D01*
X037180Y008274D01*
X037229Y008279D01*
X037280Y008280D01*
X037330Y008277D01*
X037379Y008270D01*
X037428Y008259D01*
X037476Y008244D01*
X037522Y008226D01*
X037567Y008204D01*
X037610Y008178D01*
X037651Y008149D01*
X037690Y008117D01*
X037726Y008082D01*
X037758Y008044D01*
X037788Y008004D01*
X037815Y007961D01*
X037838Y007917D01*
X037857Y007871D01*
X037873Y007823D01*
X037885Y007774D01*
X037893Y007725D01*
X037897Y007675D01*
X037897Y007625D01*
X037893Y007575D01*
X037885Y007526D01*
X037873Y007477D01*
X037857Y007429D01*
X037838Y007383D01*
X037815Y007339D01*
X037788Y007296D01*
X037758Y007256D01*
X037726Y007218D01*
X037690Y007183D01*
X037651Y007151D01*
X037610Y007122D01*
X037567Y007096D01*
X037522Y007074D01*
X037476Y007056D01*
X037428Y007041D01*
X037379Y007030D01*
X037330Y007023D01*
X037280Y007020D01*
X037229Y007021D01*
X037180Y007026D01*
X037130Y007035D01*
X037082Y007048D01*
X037035Y007064D01*
X036989Y007085D01*
X036945Y007109D01*
X036903Y007136D01*
X036863Y007166D01*
X036826Y007200D01*
X036792Y007237D01*
X036760Y007276D01*
X036732Y007317D01*
X036707Y007361D01*
X036686Y007406D01*
X036669Y007453D01*
X036655Y007501D01*
X036645Y007550D01*
X036639Y007600D01*
X036637Y007650D01*
D12*
X037267Y007650D03*
X034767Y026650D03*
X005267Y026650D03*
X005267Y007650D03*
D13*
X001284Y000150D02*
X000267Y000150D01*
X001555Y000150D02*
X001604Y000150D01*
X001875Y000150D02*
X002892Y000150D01*
X003163Y000150D02*
X003212Y000150D01*
X003483Y000150D02*
X004500Y000150D01*
X004771Y000150D02*
X004820Y000150D01*
X005090Y000150D02*
X006108Y000150D01*
X006379Y000150D02*
X006428Y000150D01*
X006698Y000150D02*
X007716Y000150D01*
X007987Y000150D02*
X008036Y000150D01*
X008306Y000150D02*
X009324Y000150D01*
X009595Y000150D02*
X009644Y000150D01*
X009914Y000150D02*
X010932Y000150D01*
X011202Y000150D02*
X011251Y000150D01*
X011522Y000150D02*
X012540Y000150D01*
X012810Y000150D02*
X012859Y000150D01*
X013130Y000150D02*
X014148Y000150D01*
X014418Y000150D02*
X014467Y000150D01*
X014738Y000150D02*
X015756Y000150D01*
X016026Y000150D02*
X016075Y000150D01*
X016346Y000150D02*
X017363Y000150D01*
X017634Y000150D02*
X017683Y000150D01*
X017954Y000150D02*
X018971Y000150D01*
X019242Y000150D02*
X019291Y000150D01*
X019562Y000150D02*
X020579Y000150D01*
X020850Y000150D02*
X020899Y000150D01*
X021170Y000150D02*
X022187Y000150D01*
X022458Y000150D02*
X022507Y000150D01*
X022778Y000150D02*
X023795Y000150D01*
X024066Y000150D02*
X024115Y000150D01*
X024386Y000150D02*
X025403Y000150D01*
X025674Y000150D02*
X025723Y000150D01*
X025994Y000150D02*
X027011Y000150D01*
X027282Y000150D02*
X027331Y000150D01*
X027602Y000150D02*
X028619Y000150D01*
X028890Y000150D02*
X028939Y000150D01*
X029210Y000150D02*
X030227Y000150D01*
X030498Y000150D02*
X030547Y000150D01*
X030818Y000150D02*
X031835Y000150D01*
X032106Y000150D02*
X032155Y000150D01*
X032425Y000150D02*
X033443Y000150D01*
X033714Y000150D02*
X033763Y000150D01*
X034033Y000150D02*
X035051Y000150D01*
X035322Y000150D02*
X035371Y000150D01*
X035641Y000150D02*
X036659Y000150D01*
X036929Y000150D02*
X036979Y000150D01*
X037249Y000150D02*
X038267Y000150D01*
D14*
X035267Y007600D03*
X034267Y007700D03*
X033267Y007600D03*
X032267Y007700D03*
X031267Y007600D03*
X030267Y007700D03*
X029267Y007600D03*
X026267Y007600D03*
X025267Y007700D03*
X024267Y007600D03*
X023267Y007700D03*
X022267Y007600D03*
X021267Y007700D03*
X020267Y007600D03*
X017267Y007550D03*
X016267Y007650D03*
X015267Y007550D03*
X014267Y007650D03*
X013267Y007550D03*
X012267Y007650D03*
X011660Y026600D03*
X012660Y026700D03*
X013660Y026600D03*
X014660Y026700D03*
X015660Y026600D03*
X017267Y026700D03*
X018267Y026600D03*
X019267Y026700D03*
X020267Y026600D03*
X021267Y026700D03*
X022267Y026600D03*
X023267Y026700D03*
X026267Y026700D03*
X027267Y026600D03*
X028267Y026700D03*
X029267Y026600D03*
X030267Y026700D03*
X031267Y026600D03*
X032267Y026700D03*
X036197Y026650D03*
X036317Y025650D03*
X037317Y025650D03*
X037337Y026650D03*
X037217Y024650D03*
X036217Y024650D03*
X036317Y023650D03*
X037317Y023650D03*
X037217Y022650D03*
X036217Y022650D03*
X036317Y021650D03*
X037317Y021650D03*
X037217Y020650D03*
X036217Y020650D03*
X036317Y019650D03*
X037317Y019650D03*
X037217Y018650D03*
X036217Y018650D03*
X036317Y017650D03*
X037317Y017650D03*
X037217Y016650D03*
X036217Y016650D03*
X036317Y015650D03*
X037317Y015650D03*
X037217Y014650D03*
X036217Y014650D03*
X036317Y013650D03*
X037317Y013650D03*
X037217Y012650D03*
X036217Y012650D03*
X036317Y011650D03*
X037317Y011650D03*
X037217Y010650D03*
X036217Y010650D03*
X036197Y009650D03*
X037337Y009650D03*
X010660Y026700D03*
X009660Y026600D03*
X008660Y026700D03*
X007660Y026600D03*
X006660Y026700D03*
D15*
X024267Y026600D03*
X033267Y026600D03*
X028267Y007700D03*
X019267Y007700D03*
D16*
X018767Y002063D03*
X018767Y001237D03*
X022767Y001237D03*
X022767Y002063D03*
X026767Y002063D03*
X026767Y001237D03*
X030767Y001237D03*
X030767Y002063D03*
X035853Y002150D03*
X036680Y002150D03*
X014767Y002063D03*
X014767Y001237D03*
X010767Y001237D03*
X010767Y002063D03*
X006767Y002063D03*
X006767Y001237D03*
X002767Y001237D03*
X002767Y002063D03*
D17*
X011393Y018650D03*
X012141Y018650D03*
X014393Y018650D03*
X015141Y018650D03*
X018893Y022150D03*
X019641Y022150D03*
X023393Y022150D03*
X024141Y022150D03*
X027893Y019150D03*
X028641Y019150D03*
X031893Y019150D03*
X032641Y019150D03*
X033393Y001600D03*
X034141Y001600D03*
X006641Y024150D03*
X005893Y024150D03*
X003141Y024150D03*
X002393Y024150D03*
D18*
X004743Y021400D03*
X004743Y020900D03*
X004743Y020400D03*
X004743Y019900D03*
X006790Y019900D03*
X006790Y020400D03*
X006790Y020900D03*
X006790Y021400D03*
X011743Y014900D03*
X011743Y014400D03*
X011743Y013900D03*
X011743Y013400D03*
X013790Y013400D03*
X013790Y013900D03*
X013790Y014400D03*
X013790Y014900D03*
X020243Y018400D03*
X020243Y018900D03*
X020243Y019400D03*
X020243Y019900D03*
X022290Y019900D03*
X022290Y019400D03*
X022290Y018900D03*
X022290Y018400D03*
X029243Y015400D03*
X029243Y014900D03*
X029243Y014400D03*
X029243Y013900D03*
X031290Y013900D03*
X031290Y014400D03*
X031290Y014900D03*
X031290Y015400D03*
D19*
X033267Y015210D03*
X033267Y014090D03*
X027267Y015090D03*
X027267Y016210D03*
X024767Y018090D03*
X024767Y019210D03*
X017767Y018710D03*
X017767Y017590D03*
X016267Y016210D03*
X016267Y015090D03*
X009267Y015090D03*
X009267Y016210D03*
X008767Y021090D03*
X008767Y022210D03*
X002267Y022210D03*
X002267Y021090D03*
D20*
X002267Y018701D03*
X002267Y017599D03*
X005267Y017201D03*
X005267Y016099D03*
X009767Y011701D03*
X009767Y010599D03*
X016267Y010599D03*
X016267Y011701D03*
D21*
X019267Y012870D02*
X019267Y013430D01*
X020267Y013430D02*
X020267Y012870D01*
X021267Y012870D02*
X021267Y013430D01*
X022267Y013430D02*
X022267Y012870D01*
X023267Y012870D02*
X023267Y013430D01*
X024267Y013430D02*
X024267Y012870D01*
X025267Y012870D02*
X025267Y013430D01*
X026267Y013430D02*
X026267Y012870D01*
X026267Y010430D02*
X026267Y009870D01*
X025267Y009870D02*
X025267Y010430D01*
X024267Y010430D02*
X024267Y009870D01*
X023267Y009870D02*
X023267Y010430D01*
X022267Y010430D02*
X022267Y009870D01*
X021267Y009870D02*
X021267Y010430D01*
X020267Y010430D02*
X020267Y009870D01*
X019267Y009870D02*
X019267Y010430D01*
D22*
X021267Y002024D03*
X021267Y001276D03*
X025267Y001276D03*
X025267Y002024D03*
X029267Y002024D03*
X029267Y001276D03*
X017267Y001276D03*
X017267Y002024D03*
X013267Y002024D03*
X013267Y001276D03*
X009267Y001276D03*
X009267Y002024D03*
X005267Y002024D03*
X005267Y001276D03*
X001267Y001276D03*
X001267Y002024D03*
D23*
X004267Y004650D03*
X008767Y004650D03*
X013267Y004650D03*
X017767Y004650D03*
X022267Y004650D03*
X026767Y004650D03*
X031267Y004650D03*
X035767Y004650D03*
X035767Y029150D03*
X031267Y029150D03*
X026767Y029150D03*
X022267Y029150D03*
X017767Y029150D03*
X013267Y029150D03*
X008767Y029150D03*
X004267Y029150D03*
D24*
X002298Y029150D03*
X006798Y029150D03*
X011298Y029150D03*
X015798Y029150D03*
X020298Y029150D03*
X024798Y029150D03*
X029298Y029150D03*
X033798Y029150D03*
X033798Y004650D03*
X029298Y004650D03*
X024798Y004650D03*
X020298Y004650D03*
X015798Y004650D03*
X011298Y004650D03*
X006798Y004650D03*
X002298Y004650D03*
D25*
X020215Y015650D03*
X021318Y015650D03*
X023215Y015650D03*
X024318Y015650D03*
X028715Y011650D03*
X029818Y011650D03*
X032215Y011650D03*
X033318Y011650D03*
M02*
