%
M48
M72
T01C0.0197
T02C0.0200
T03C0.0320
T04C0.0400
T05C0.0512
T06C0.1260
%
T01
X3267Y3650
X14767Y16650
X9767Y19150
X15267Y22150
X17267Y23650
X20267Y23650
X29767Y17650
X33267Y21650
X31767Y22150
X26767Y3650
X4267Y25650
T02
X5975Y20918
X7944Y20819
X16408Y19540
X17786Y20524
X18771Y21508
X24775Y22394
X25464Y21213
X29991Y14422
X26645Y6646
X26891Y5859
X28958Y5908
X32599Y4874
X32993Y4333
X32501Y2709
X34519Y2709
X29154Y2807
X34469Y24215
X33830Y24855
T03
X26267Y13150
X25267Y13150
X24267Y13150
X23267Y13150
X22267Y13150
X21267Y13150
X20267Y13150
X19267Y13150
X19267Y10150
X20267Y10150
X21267Y10150
X22267Y10150
X23267Y10150
X24267Y10150
X25267Y10150
X26267Y10150
T04
X25267Y7700
X24267Y7600
X23267Y7700
X22267Y7600
X21267Y7700
X20267Y7600
X19267Y7700
X17267Y7550
X16267Y7650
X15267Y7550
X14267Y7650
X13267Y7550
X12267Y7650
X26267Y7600
X28267Y7700
X29267Y7600
X30267Y7700
X31267Y7600
X32267Y7700
X33267Y7600
X34267Y7700
X35267Y7600
X36197Y9650
X36217Y10650
X37217Y10650
X37317Y11650
X36317Y11650
X36217Y12650
X37217Y12650
X37317Y13650
X36317Y13650
X36217Y14650
X37217Y14650
X37317Y15650
X36317Y15650
X36217Y16650
X37217Y16650
X37317Y17650
X36317Y17650
X36217Y18650
X37217Y18650
X37317Y19650
X36317Y19650
X36217Y20650
X37217Y20650
X37317Y21650
X36317Y21650
X36217Y22650
X37217Y22650
X37317Y23650
X36317Y23650
X36217Y24650
X37217Y24650
X37317Y25650
X37337Y26650
X36197Y26650
X36317Y25650
X33267Y26600
X32267Y26700
X31267Y26600
X30267Y26700
X29267Y26600
X28267Y26700
X27267Y26600
X26267Y26700
X24267Y26600
X23267Y26700
X22267Y26600
X21267Y26700
X20267Y26600
X19267Y26700
X18267Y26600
X17267Y26700
X15660Y26600
X14660Y26700
X13660Y26600
X12660Y26700
X11660Y26600
X10660Y26700
X9660Y26600
X8660Y26700
X7660Y26600
X6660Y26700
X37337Y9650
T05
X35767Y4650
X33798Y4650
X31267Y4650
X29298Y4650
X26767Y4650
X24798Y4650
X22267Y4650
X20298Y4650
X17767Y4650
X15798Y4650
X13267Y4650
X11298Y4650
X8767Y4650
X6798Y4650
X4267Y4650
X2298Y4650
X2298Y29150
X4267Y29150
X6798Y29150
X8767Y29150
X11298Y29150
X13267Y29150
X15798Y29150
X17767Y29150
X20298Y29150
X22267Y29150
X24798Y29150
X26767Y29150
X29298Y29150
X31267Y29150
X33798Y29150
X35767Y29150
T06
X34767Y26650
X37267Y7650
X5267Y7650
X5267Y26650
M30
